<?xml version="1.0" encoding="utf-8"?>
<!-- Generator: Adobe Illustrator 16.0.1, SVG Export Plug-In . SVG Version: 6.00 Build 0)  -->
<!DOCTYPE svg PUBLIC "-//W3C//DTD SVG 1.1//EN" "http://www.w3.org/Graphics/SVG/1.1/DTD/svg11.dtd">
<svg version="1.1" id="Layer_1" xmlns="http://www.w3.org/2000/svg" xmlns:xlink="http://www.w3.org/1999/xlink" x="0px" y="0px"
     width="321px" height="27px" viewBox="0 0 321 27" enable-background="new 0 0 321 27" xml:space="preserve">
  <g>
    <path fill-rule="evenodd" clip-rule="evenodd" fill="#FFFFFF" d="M116.76,21c-3.08,0-4.29-3.79-4.29-6.88
								    c0-2.68,1.05-5.15,3.63-5.15c3.13,0,4.26,3.32,4.26,6.57C120.36,19.45,118.97,21,116.76,21L116.76,21z M116.52,21.91
								    c3.23,0,5.68-2.96,5.68-6.84c0-5.87-3.71-7.03-5.71-7.03c-3.31,0-5.86,3.31-5.86,7.19C110.63,19.48,113.1,21.91,116.52,21.91
								    L116.52,21.91z"/>
    <path fill="#FFFFFF" d="M39.99,11.56L39.14,9.3c0,0-0.13,0.06,0.48-1.82l1.19-3.59c0.58-1.77,1.16-2.69,1.91-2.71
			    c0.94-0.02,0.93-0.58,0.22-0.58c-0.72,0-1.15,0.06-1.78,0.06c-0.66,0-1.01-0.06-1.72-0.06c-0.27,0-0.56,0.08-0.53,0.3
			    c0.03,0.22,0.42,0.14,0.71,0.3c0.48,0.25,0.79,1.27,0.45,2.35l-1.4,4.5l-1.59-4.2c-0.32-0.8-0.74-2.56,0.03-2.72
    c0.74-0.15,0.64-0.54,0.19-0.54c-0.87,0-1.34,0.11-2.18,0.11c-0.93,0-1.62-0.11-2.49-0.11c-0.19,0-0.53,0.03-0.42,0.39
    c0.05,0.22,0.5,0.14,0.77,0.3c1.06,0.69,1.27,1.57,1.64,2.57l2.33,6.6c0.42,1.19,0.45,0.75,0.11,1.77l-2.04,5.61l-5-14.39
    c-0.4-1.08-0.61-1.82,0.27-2.24c0.37-0.19,0.48-0.23,0.53-0.3c0.05-0.07,0.09-0.32-0.45-0.3C29.45,0.63,28.9,0.71,28,0.71
    c-0.95,0-1.62-0.11-2.49-0.11c-0.29,0-0.34,0.14-0.34,0.36c0,0.33,0.71,0.11,1.32,0.83c0.34,0.39,1.01,1.68,1.16,2.15l6.04,17.43
    c0.11,0.26,0.14,0.77,0.5,0.77c0.28,0,0.33-0.59,0.43-0.81l3.17-8.75l3.1,8.31c0.13,0.33,0.31,1.24,0.64,1.24
    c0.27,0,0.36-0.43,0.5-0.84l5.99-17.19c0.5-1.38,1.09-2.85,2.04-3.01c0.37-0.06,0.56-0.19,0.56-0.19c0-0.25-0.05-0.3-0.4-0.3
    c-0.66,0-1.06,0.11-1.72,0.11c-0.71,0-1.27-0.08-1.88-0.08c-0.34,0-0.32,0.11-0.32,0.3c0,0.22,0.66,0.08,1.03,0.91
    c0.21,0.44,0.13,1.38-0.08,1.93l-5.08,14L39.99,11.56L39.99,11.56z"/>
  <path fill="#FFFFFF" d="M108.13,8.41c0-2.45,0.03-3.3-0.35-3.3c-0.36,0-0.31,0.1-0.64,1.19c-0.55,1.82-2.55,2.62-3.19,3.01
    c-0.16,0.08-0.15,0.1-0.15,0.2c-0.01,0.23,0.76,0.14,2.35,0.18l-0.01,8.19c0,3.5,1.67,4.09,2.91,4.09c1.9,0,3.26-1.35,3.34-1.83
    c0-0.27-0.04-0.3-0.19-0.27c-0.26,0.13-0.87,0.78-2.31,0.78c-1.08,0-1.71-0.65-1.77-2.04V9.88c0,0,3.25-0.01,3.43-0.01
    c0.22,0,0.66-1.47,0.68-1.54c0.04-0.18,0.1-0.33,0.12-0.46c0.04-0.28-0.17-0.3-0.37-0.01c-0.16,0.15-0.33,0.56-1,0.56H108.13
    L108.13,8.41z"/>
  <path fill="#FFFFFF" d="M125.39,11.84c-0.03-0.5,0.89-2.46,3.1-2.46c2.13,0,3.08,2.37,3.08,3.94v5.9
    c-0.03,2.31-0.82,1.58-1.13,2.05c-0.17,0.26,0.13,0.38,0.47,0.38s0.89-0.13,1.89-0.13c1.29,0,1.85,0.12,2.19,0.12
    c0.26,0,0.74-0.2,0.45-0.44c-0.66-0.54-1.97,0.28-1.96-2.11v-5.2c0-2.4-0.76-5.9-4.29-5.9c-2.55,0-3.86,2.44-3.81,2.06V8.25
    c0-0.32-0.16-0.5-0.32-0.5c-0.6,0-1.05,1.03-3.11,1.66c-0.13,0.03-0.51,0.04-0.52,0.28c0,0.66,2.07-0.86,2.03,1.73v7.82
    c0,2.05-1.37,1.55-1.68,2.09c-0.16,0.27,0.26,0.34,0.6,0.34c0.31,0,0.84-0.13,2.23-0.13c1.52,0,2.05,0.13,2.5,0.13
    c0.4,0,0.85-0.17,0.58-0.44c-0.42-0.42-2.31,0.06-2.31-2.11V11.84L125.39,11.84z"/>
  <path fill-rule="evenodd" clip-rule="evenodd" fill="#FFFFFF" d="M52.86,18.41c0,1.67-1.7,2.55-2.64,2.55
    c-1.39,0-2.37-0.91-2.37-2.7c0-2.78,3.33-3.28,5.01-3.72V18.41L52.86,18.41z M52.65,13.69c-6.15,1.23-7.04,3.28-7.04,4.95
    c0,2.24,1.57,3.24,3.28,3.24c1.47,0,2.92-0.69,4.02-1.83c0.34,1.04,1.03,1.67,2.05,1.64c0.36-0.01,0.41,0.09,1.49-0.38
    c0.39-0.1,0.34-0.09,0.83,0c0.79,0.11-1.08-2.98-1.15-2.2c-0.02,0.22,0.1,1.62-0.61,1.67c-1.26,0.08-0.96-1.92-0.96-3v-6.53
    c-0.06-2-1.57-3.3-3.85-3.3c-3.14,0-5.38,3.87-4.32,5.07c0.25,0.29,1.28-0.82,1.34-0.88c0.06-0.06,0.08-0.13,0.08-0.13
    c-0.01-1.32,0.98-2.99,2.4-3.14c1.62-0.16,2.43,1.05,2.43,2.69V13.69L52.65,13.69z"/>
  <path fill="#FFFFFF" d="M59.66,7.98c-1.83-0.03-3.49,1.2-3.43,3.66c0.05,2.24,2.62,3.45,4.04,4.3c1.05,0.6,2.27,1.38,2.23,2.62
    c-0.06,1.64-1.24,2.71-2.61,2.62c-3.2-0.05-2.89-4.07-3.46-4.07c-0.4,0-0.31,1.01-0.32,1.54c0,1.27,0.42,1.85,0.41,2.35
    c0.39,0.07-0.12,0.18,0.2,0.18c0.63,0,1.53,0.7,3.37,0.7C62.15,21.92,64,20,64,17.64c0-1.46-0.42-2.38-2.42-3.62
    c-0.52-0.25-1.29-0.69-1.67-0.9c-1.65-0.9-2.3-1.5-2.35-2.34c-0.08-1.47,1.17-2.22,2.24-2.12c2.58-0.05,2.92,2.84,3.19,2.84
    c0.39,0,0.29-0.38,0.29-1.23c0-0.22,0.03-1.29-0.13-1.54C62.83,8.26,61,7.98,60.56,7.98c-0.11,0-0.53-0.01-0.61-0.01
    C59.83,7.96,59.66,7.98,59.66,7.98L59.66,7.98z"/>
  <path fill="#FFFFFF" d="M67.23,1.23c0-0.32-0.16-0.49-0.32-0.5c-0.4-0.02-1.08,1.22-3,1.66c-0.13,0.03-0.62,0.07-0.62,0.26
    c0,0.66,1.99-0.31,2.02,1.73v15.11c0,1.55-1.31,1.33-1.55,1.83c-0.04,0.21,0.08,0.32,0.26,0.32c0.42,0,1.58-0.13,2.39-0.13
    s2.13,0.13,2.68,0.13c0.32,0,0.45-0.06,0.45-0.44c-0.27-0.54-2.31,0.28-2.31-2.43v-6.66c0-1.61,1.89-2.84,3.08-2.84
    c0.92,0,3.18,0.73,3.18,4.64v5.77c0,1.14-1.2,1.25-1.29,1.61c0,0.25,0.16,0.35,0.42,0.35c0.29,0,1.13-0.13,2.16-0.13
    c1,0,1.86,0.1,2.34,0.1c0.29,0,0.48-0.04,0.4-0.38c-0.03-0.14-0.02-0.33-0.42-0.28c-0.91-0.03-1.68-0.19-1.68-1.49v-5.27
    c0-2.71-1.02-6.21-4.39-6.21c-1.5,0-2.79,0.83-3.79,1.97V1.23L67.23,1.23z"/>
  <path fill="#FFFFFF" d="M78.99,3.86c-0.31,0-1.08,1.29-1.08,1.63c0,0.34,0.77,1.6,1.08,1.6c0.33,0,1.08-1.23,1.08-1.6
    C80.07,5.12,79.33,3.86,78.99,3.86L78.99,3.86z"/>
  <path fill="#FFFFFF" d="M78.1,18.83c0.06,1.9-0.97,2.09-1.54,2.09c-0.85-0.01-0.64,0.1-0.64,0.36c0.03,0.32,0.54,0.34,1.38,0.34
    c0.29,0,1.01-0.11,1.85-0.11c1.08,0,1.89,0.13,2.45,0.13c0.34,0,0.77-0.82,0.08-0.71c-0.53-0.03-1.65-0.24-1.65-1.38V8.23
    c0-0.32-0.16-0.5-0.32-0.5c-0.6,0-0.99,1.11-2.68,1.68c-0.13,0.03-0.37,0.06-0.37,0.25c0,0.66,1.51-0.62,1.45,1.73V18.83
    L78.1,18.83z"/>
  <path fill="#FFFFFF" d="M85.34,11.83c-0.03-0.5,0.89-2.46,3.1-2.46c2.13,0,3.08,2.37,3.08,3.94v5.9c0,2.05-0.82,1.58-1.13,2.05
    c-0.17,0.26,0.13,0.38,0.47,0.38c0.34,0,0.89-0.13,1.89-0.13c1.29,0,1.95,0.13,2.29,0.13c0.26,0,0.74-0.2,0.45-0.44
    c-0.66-0.54-2.05,0.06-2.05-2.11v-5.2c0-2.4-0.76-5.9-4.29-5.9c-2.55,0-3.87,2.44-3.81,2.06V8.23c0-0.32-0.16-0.5-0.32-0.5
    c-0.6,0-0.74,1.01-2.95,1.59c-0.13,0.03-0.43,0.1-0.44,0.34c0,0.66,1.77-0.72,1.79,1.73v7.82c0,1.68-1.32,1.68-1.56,1.71
    c-0.26,0-0.56,0.04-1.18-0.08c-0.67-0.12-0.12,0.47-0.19,0.57c-0.17,0.27,1.51,0.22,1.85,0.22c0.32,0,0.84-0.13,2.23-0.13
    c1.52,0,2.05,0.13,2.5,0.13c0.39,0,0.85-0.17,0.58-0.44c-0.42-0.42-2.31,0.06-2.31-2.11V11.83L85.34,11.83z"/>
  <path fill-rule="evenodd" clip-rule="evenodd" fill="#FFFFFF" d="M96.49,24.15c-0.84-1.2-0.15-3.44,0.98-3.51
    c0.21-0.01,0.27,0.08,2.68,0.18c2.49,0.06,3.39,0.79,3.54,1.44c0.27,1.15-0.54,3.6-4.11,3.37C97.32,25.48,96.66,24.4,96.49,24.15
    L96.49,24.15z M102.4,12.46c0,1.98-0.89,3.51-2.89,3.51c-2.11,0-2.82-2.06-2.82-4c0-2.01,0.6-3.66,2.71-3.66
    C101.55,8.3,102.4,10.52,102.4,12.46L102.4,12.46z M96.16,20.38c-0.95,0.38-1.92,1.47-1.99,2.67c-0.14,2.57,2.98,3.49,5.6,3.45
    c5.2-0.07,6.67-3.71,5.59-5.64c-1.11-1.99-3.49-1.91-5.77-1.9c-4.27,0.02-3.46-2.65-1.72-2.55c0.4,0.02,0.21,0.14,1.59,0.14
    c2.47,0,4.84-1.69,4.77-4.48c-0.01-0.24,0.05-1.05-0.54-2.19c1.35,0.01,0.49-0.01,3.51,0c0.16,0-0.12-3.02-1.24-1.84
    c-0.25,0.15-1.32,1.06-2.81,0.73c-0.74-0.17-1.63-1.08-3.88-1.08c-2.42,0-4.53,1.99-4.53,4.66c0,1.44,0.63,2.82,1.74,3.56
    c-0.21,0.12-1.55,1.27-1.39,2.61C95.11,18.52,95.08,19.91,96.16,20.38L96.16,20.38z"/>
  <path fill-rule="evenodd" clip-rule="evenodd" fill="#FFFFFF" d="M190.49,13.8c0.61,0,0.89,0.03,0.89-0.54
    c0-1.26-1.42-5.02-4.66-5.02c-3.29,0-5.16,3.38-5.16,7.42c0,2.08,1.37,6.48,5.32,6.48c2.37,0,4.66-2.27,4.66-3
    c0-0.09,0-0.22-0.11-0.22c-0.58,0-1.45,1.64-3.71,1.64c-1.61,0-4.24-1.55-4.24-6.76H190.49L190.49,13.8z M183.48,12.95
    c0-1.74,1.16-3.98,2.79-3.98c1.45,0,2.92,1.58,2.92,3.35c0,0.47-0.16,0.63-0.53,0.63H183.48L183.48,12.95z"/>
  <path fill="#FFFFFF" d="M203.05,8.31c-1.79-0.03-3.47,1.11-3.42,3.51c0.05,2.19,2.62,3.44,4.01,4.27c1.03,0.58,2.24,1.14,2.22,2.54
    c-0.02,1.6-1.26,2.66-2.59,2.57c-3.13-0.05-2.7-3.97-3.26-3.97c-0.39,0-0.31,0.99-0.31,1.51c0,1.24-0.06,2.26,0.1,2.44
    c0.05,0.06,0.2,0.03,0.5,0.03c0.62,0,1.37,0.68,3.17,0.68c2.01,0.03,3.82-1.84,3.82-4.15c0-1.42-0.41-2.33-2.37-3.54
    c-0.5-0.24-1.26-0.68-1.63-0.88c-1.61-0.88-2.25-1.46-2.29-2.29c-0.08-1.43,1.14-2.17,2.19-2.07c2.52-0.04,2.86,2.78,3.11,2.78
    c0.38,0,0.28-0.37,0.28-1.2c0-0.22,0.03-1.26-0.13-1.51c-0.31-0.46-2.09-0.73-2.53-0.73c-0.11,0-0.52-0.01-0.59-0.02
    C203.21,8.29,203.05,8.31,203.05,8.31L203.05,8.31z"/>
  <path fill="#FFFFFF" d="M210.23,3.59c-0.32,0-1.11,1.33-1.11,1.67c0,0.35,0.79,1.64,1.11,1.64c0.34,0,1.11-1.26,1.11-1.64
    S210.57,3.59,210.23,3.59L210.23,3.59z"/>
  <path fill="#FFFFFF" d="M209.34,18.88c0,2.88-1.28,1.77-1.47,2.47c-0.08,0.31,0.49,0.35,0.7,0.35c0.29,0,0.98-0.13,1.82-0.13
    c1.08,0,1.9,0.13,2.45,0.13c0.34,0,0.59-0.11,0.5-0.35c-0.23-0.61-2.08-0.13-2.08-1.74V8.24c0-0.32-0.16-0.51-0.32-0.51
    c-0.61,0-1,1.11-2.69,1.68c-0.13,0.03-0.44,0.06-0.44,0.25c0,0.66,1.55-0.66,1.52,1.74V18.88L209.34,18.88z"/>
  <path fill="#FFFFFF" d="M141.69,5.51c0-1.97,1.42-1.55,1.45-1.99c0.03-0.42-1.26-0.17-1.36-0.17c-0.67,0-1.15,0.08-1.84,0.08
    c-0.59,0-1.3-0.1-1.86-0.1c-0.11,0-0.51-0.02-0.58,0.15c-0.22,0.59,1.81,0.27,1.81,1.89v8.57c0,4.22,1.09,8.36,6.8,8.25
    c6.78-0.12,6.65-6.77,6.65-8.12V6.25c0-2.52,1.13-2.28,1.35-2.67c0.1-0.17-0.24-0.25-0.35-0.25c-0.39,0-1.3,0.11-1.71,0.11
    c-0.85,0-1.55-0.09-2.4-0.09c-0.06,0-0.43,0.05-0.44,0.19c-0.01,0.66,2.02-0.11,2.02,2.69v8.21c0,3.23-0.93,6.63-5.02,6.63
    c-2.93,0-4.52-2-4.52-6.39V5.51L141.69,5.51z"/>
  <path fill="#FFFFFF" d="M216.57,8.95c0-2.33,0.03-2.92-0.33-2.92c-0.35,0-0.3,0.09-0.61,1.13c-0.52,1.73-2.43,2.49-3.04,2.87
    c-0.15,0.07-0.14,0.1-0.15,0.19c-0.01,0.22,0.67,0.13,2.18,0.17l-0.01,7.8c0,3.33,1.64,3.9,2.83,3.9c1.81,0,3.1-1.29,3.18-1.74
    c0-0.26-0.03-0.28-0.18-0.26c-0.25,0.12-0.83,0.74-2.2,0.74c-1.03,0-1.63-0.61-1.68-1.94v-8.5c0,0,3.1-0.01,3.27-0.01
    c0.21,0,0.65-1.25,0.67-1.31c0.06-0.16-0.08-0.12-1.22-0.13H216.57L216.57,8.95z"/>
  <path fill="#FFFFFF" d="M157.26,11.97c-0.03-0.5,0.88-2.43,3.06-2.43c2.1,0,3.04,2.33,3.04,3.89v5.82c0,2.02-0.81,1.56-1.12,2.02
    c-0.17,0.26,0.13,0.37,0.47,0.37c0.34,0,0.88-0.15,1.87-0.13c1.15,0.03,1.92,0.13,2.26,0.13c0.26,0,1.39-1.17,1.02-1.17
    c-0.09,0-0.45,0.57-1.11,0.56c-0.17,0-0.2,0.03-0.5-0.05c-0.58-0.14-0.98-0.44-0.98-1.86v-5.13c0-2.36-0.75-5.82-4.23-5.82
    c-2.52,0-3.81,2.3-3.76,1.92V8.42c0-0.31-0.16-0.5-0.31-0.5c-0.6,0-0.75,1.19-2.86,1.63c-0.13,0.03-0.5,0.03-0.52,0.27
    c0,0.65,1.78-0.56,1.79,1.7v7.71c0,2.02-1.56,1.53-1.87,2.06c-0.16,0.27,0.47,0.33,0.8,0.33c0.31,0,0.83-0.13,2.2-0.13
    c1.5,0,2.02,0.13,2.46,0.13c0.39,0,0.84-0.17,0.57-0.44c-0.42-0.41-2.28,0.06-2.28-2.08V11.97L157.26,11.97z"/>
  <path fill="#FFFFFF" d="M174.7,11.66c-0.32-0.95-0.45-1.45-0.45-1.55c0-0.95,1.18-0.73,1.44-1.13c0.17-0.26-0.18-0.39-0.55-0.39
    c-0.32,0-0.68,0.11-1.65,0.13c-0.81,0.02-1.38,0.01-1.73-0.05c-0.91-0.16-0.83,0.33-0.52,0.48c0.31,0.15,0.46,0.01,0.93,1.33
    l3.98,10.9c0.08,0.22,0.19,0.76,0.53,0.76c0.39,0,0.39-0.38,0.89-1.67c0,0,3.8-10.32,4.06-10.7c0.51-0.73,0.9-0.49,1.09-0.7
    c0.18-0.2,0.23-0.52-0.58-0.46c-0.45,0-0.79,0.08-1.23,0.08c-0.58,0-0.69-0.02-1.24-0.04c-0.69-0.02-0.88,0.05-0.84,0.25
    c0.12,0.6,1.57,0.01,1.37,1.77c-0.17,1.48-0.66,2.75-1.16,4.01l-1.76,4.55L174.7,11.66L174.7,11.66z"/>
  <path fill="#FFFFFF" d="M194.98,12.02c0-0.4,0.61-1.81,1.66-1.81c0.92,0,1.04,0.71,1.52,0.71c0.31,0,0.92-0.92,0.92-1.38
    c0-0.58-1.15-1.38-1.69-1.38c-1.08,0-1.83,1.29-2.37,2.18h-0.05V8.4c0-0.31-0.15-0.49-0.31-0.49c-0.41,0-0.73,0.82-2.92,1.34
    c-0.13,0.03-0.49,0.1-0.49,0.29c0,0.65,1.85-0.19,1.84,1.94v8.14c0,1.26-1.31,1.14-1.31,1.78c0,0.18,0.08,0.28,0.28,0.28
    c0.18,0,0.64-0.12,2.36-0.12c1.43,0,2.05,0.12,2.41,0.12c0.28,0,0.41-0.06,0.41-0.34c0-0.98-2.28,0.49-2.28-2.37V12.02
    L194.98,12.02z"/>
  <path fill="#FFFFFF" d="M169.03,3.58c-0.32,0-1.11,1.33-1.11,1.67c0,0.35,0.79,1.64,1.11,1.64c0.34,0,1.11-1.26,1.11-1.64
    S169.37,3.58,169.03,3.58L169.03,3.58z"/>
  <path fill="#FFFFFF" d="M168.08,18.87c0.02,2.07-0.88,2.17-1.31,2.18c-0.38,0.03-0.88-0.16-0.88,0.08
    c0.03,0.32-0.29,0.42,1.11,0.51c0.62,0,1.29-0.08,2.13-0.08c1.08,0,1.9,0.13,2.45,0.13c0.34,0,0.59-0.11,0.5-0.35
    c-0.23-0.61-2.08-0.13-2.08-1.74V8.23c0-0.32-0.16-0.51-0.32-0.51c-0.61,0-1,1.11-2.69,1.68c-0.13,0.03-0.37,0.06-0.37,0.25
    c0,0.66,1.44-0.63,1.45,1.74V18.87L168.08,18.87z"/>
  <path fill-rule="evenodd" clip-rule="evenodd" fill="#FFFFFF" d="M224.69,22.08l3.6-10.9c0.53-1.9,1.36-1.55,1.49-1.81
    c0.08-0.16-0.05-0.32-0.36-0.32c-0.26,0-0.94,0.04-1.54,0.04c-0.74,0-1.1-0.09-1.42-0.09c-0.47,0-0.93,0-0.85,0.31
    c0.09,0.34,1.69,0.22,1.69,1.93c0,0.22,0,0.51-0.32,1.64l-2.03,6.35l-2.82-7.8c0,0-0.13-0.25-0.13-0.76c0-1.26,1.5-1.12,1.56-1.35
    c0.05-0.18-0.21-0.38-0.6-0.38c-0.42,0-1.04,0.01-1.97,0.01c-0.73,0-1.28,0.02-1.83,0.02c-0.37,0-0.53,0.06-0.53,0.38
    c0,0.44,1,0.47,1.24,1.17l2.91,8.09c0.24,0.66,0.38,0.88,0.66,2.05c0.19,0.77,0.12,1.45,0.12,1.45c-0.28,1.22-1.04,1.91-2.2,4.16
    c-0.11,0.21,1.67-0.02,1.76-0.05c0.14-0.04,0.13-0.08,0.3-0.4l1.35-3.95L224.69,22.08L224.69,22.08z"/>
  <path fill="#FFFFFF" d="M241.2,12.23c-0.03-0.49,0.87-2.4,3.02-2.4c2.07,0,2.99,2.3,2.99,3.84v5.74c0,2-0.8,1.54-1.1,2
    c-0.17,0.25,0.13,0.37,0.46,0.37c0.33,0,0.87-0.12,1.84-0.12c1.25,0,1.89,0.12,2.23,0.12c0.26,0,0.72-0.2,0.44-0.43
    c-0.65-0.53-2,0.06-2-2.06v-5.07c0-2.33-0.74-5.74-4.17-5.74c-2.48,0-3.76,2.27-3.71,1.9V8.73c0-0.31-0.15-0.49-0.31-0.49
    c-0.59,0-1.03,1.01-3.03,1.61c-0.13,0.03-0.5,0.03-0.51,0.27c0,0.65,1.97-0.42,1.98,1.68v7.62c0,1.37-0.66,1.68-1.9,1.73
    c-0.25,0.07,0.16,0.14,0.06,0.3c-0.15,0.27,0.46,0.33,0.79,0.33c0.31,0,0.82-0.12,2.18-0.12c1.48,0,2,0.12,2.43,0.12
    c0.38,0,0.83-0.17,0.56-0.43c-0.41-0.41-2.25,0.06-2.25-2.06V12.23L241.2,12.23z"/>
  <path fill="#FFFFFF" d="M234.87,3.76c-0.31,0-1.08,1.31-1.08,1.66c0,0.34,0.77,1.63,1.08,1.63c0.33,0,1.08-1.25,1.08-1.63
    C235.95,5.04,235.2,3.76,234.87,3.76L234.87,3.76z"/>
  <path fill="#FFFFFF" d="M234.02,18.94c0,2.85-1.24,1.75-1.43,2.44c-0.08,0.3,0.48,0.34,0.69,0.34c0.28,0,0.97-0.1,1.79-0.1
    c1.05,0,1.83,0.21,2.37,0.19c2.01-0.09,0.57-0.2,0.49-0.44c-0.06-0.16,0.98-0.56-0.08-0.22c-1.19-0.09-1.95-0.33-1.95-1.5
    l0.01-7.92l-0.01-3.07c0-0.31-0.15-0.5-0.31-0.5c-0.59,0-0.97,1.1-2.61,1.67c-0.13,0.03-0.43,0.06-0.43,0.24
    c0,0.66,1.52-0.66,1.48,1.73V18.94L234.02,18.94z"/>
  <path fill="#FFFFFF" d="M259.14,4.43c-0.16,0-0.39,0.02-0.39,0.02c-2.38-0.04-4.61,1.47-4.54,4.66c0.06,2.9,3.49,4.57,5.33,5.67
    c1.36,0.78,2.79,2.02,2.75,3.4c-0.07,2.13-1.47,3.52-3.24,3.4c-4.15-0.07-3.58-5.28-4.33-5.28c-0.51,0-0.41,1.31-0.41,2
    c0,1.65-0.07,3,0.12,3.24c0.06,0.08,0.26,0.04,0.67,0.04c0.82,0,1.82,0.9,4.2,0.9c2.68,0.04,4.87-2.31,4.87-5.38
    c0-1.89-0.55-3.09-3.14-4.7c-0.67-0.32-1.68-0.9-2.17-1.17c-2.14-1.17-2.99-1.94-3.05-3.04c-0.1-1.9,1.85-3.03,3.25-2.89
    c1.77,0,3.23,1.02,3.84,3.22c0.06,0.23,0.28,0.76,0.51,0.76c0.2,0,0.24-0.18,0.22-0.38l-0.3-3.47c-0.02-0.28-0.12-0.36-0.24-0.36
    c-0.2,0-0.32,0.28-0.5,0.28C262.29,5.37,261.58,4.41,259.14,4.43L259.14,4.43z"/>
  <path fill="#FFFFFF" d="M267.64,9.42c0-2.3,0.03-2.96-0.33-2.96c-0.34,0-0.29,0.09-0.6,1.12c-0.52,1.71-2.4,2.46-3,2.83
    c-0.15,0.07-0.14,0.1-0.15,0.19c-0.01,0.22,0.66,0.13,2.16,0.17l-0.01,7.7c0,3.29,1.62,3.85,2.8,3.85c1.79,0,3.06-1.27,3.14-1.72
    c0-0.25-0.03-0.28-0.18-0.26c-0.25,0.12-0.82,0.73-2.17,0.73c-1.02,0-1.61-0.61-1.66-1.92v-8.38c0,0,3.06-0.01,3.23-0.01
    c0.21,0,0.64-1.34,0.66-1.42c0.05-0.16,0.07-0.31,0.09-0.44c0.04-0.26-0.13-0.27-0.3,0.01c-0.11,0.13-0.35,0.51-0.99,0.51H267.64
    L267.64,9.42z"/>
  <path fill="#FFFFFF" d="M279.92,6.99c0-2.71,1.86-1.92,1.9-2.41c0.03-0.34-0.26-0.27-0.57-0.27c-0.36,0-1,0.15-2.35,0.15
    c-1.16,0-2.19-0.12-2.69-0.12c-0.31,0-0.59,0.1-0.48,0.35c0.23,0.58,2,0.05,2,1.67V18.1c0,1.46,0.2,2.4-0.42,2.77
    c-0.76,0.5-1.65,0.52-1.57,0.84c0.05,0.2,0.42,0.21,0.63,0.21c0.95,0,2.26-0.12,3.21-0.16c1.8-0.06,3.61,0.12,5.41,0.12
    c1.04,0,1.31-0.23,2.07-1.35c0.57-0.81,0.56-0.9,0.56-2.02c0-0.06-0.02-0.37-0.19-0.37c-0.31,0-0.23,2.5-5.72,2.5
    c-2,0-1.8-0.75-1.8-2.58V6.99L279.92,6.99z"/>
  <path fill="#FFFFFF" d="M273.35,18.94c-0.31,0-1.09,1.31-1.09,1.65c0,0.34,0.78,1.62,1.09,1.62c0.34,0,1.09-1.25,1.09-1.62
    C274.45,20.22,273.69,18.94,273.35,18.94L273.35,18.94z"/>
  <path fill="#FFFFFF" d="M316.33,8.84c-1.75-0.03-3.39,1.08-3.34,3.43c0.05,2.14,2.56,3.36,3.92,4.17c1,0.57,2.19,1.12,2.17,2.49
    c-0.02,1.57-1.23,2.6-2.53,2.51c-3.06-0.05-2.64-3.88-3.19-3.88c-0.38,0-0.3,0.96-0.3,1.48c0,1.21-0.05,2.21,0.09,2.39
    c0.05,0.06,0.19,0.03,0.49,0.03c0.6,0,1.34,0.67,3.09,0.67c1.97,0.03,3.74-1.8,3.74-4.05c0-1.39-0.4-2.27-2.31-3.46
    c-0.49-0.24-1.23-0.66-1.6-0.86c-1.58-0.87-2.2-1.43-2.24-2.24c-0.07-1.4,1.11-2.12,2.14-2.02c2.46-0.04,2.79,2.71,3.04,2.71
    c0.38,0,0.28-0.36,0.28-1.17c0-0.21,0.03-1.24-0.13-1.48c-0.3-0.45-2.04-0.72-2.47-0.72c-0.11,0-0.51-0.01-0.58-0.02
    C316.48,8.82,316.33,8.84,316.33,8.84L316.33,8.84z"/>
  <path fill="#FFFFFF" d="M309.87,4.4c-0.3,0-1.04,1.3-1.04,1.64s0.74,1.61,1.04,1.61c0.32,0,1.04-1.24,1.04-1.61
    S310.19,4.4,309.87,4.4L309.87,4.4z"/>
  <path fill="#FFFFFF" d="M308.98,19.2c0,2.76-1.22,1.69-1.41,2.36c-0.08,0.29,0.47,0.33,0.67,0.33c0.28,0,0.93-0.28,1.74-0.28
    c1.04,0,1.3,0.28,1.83,0.28c0.33,0,0.56-0.14,0.48-0.37c-0.22-0.59-1.47-0.08-1.47-1.63V9.01c0-0.3-0.15-0.49-0.3-0.49
    c-0.58,0-0.95,1.07-2.57,1.61c-0.13,0.03-0.36,0.06-0.36,0.24c0,0.64,1.24-0.82,1.39,1.67V19.2L308.98,19.2z"/>
  <path fill="#FFFFFF" d="M304.12,18.14c-0.12,1.31-1.29,2.76-2.7,2.76c-0.32,0-2.43-0.22-2.4-3.5V9.55c0-0.59-0.35-0.74-0.45-0.74
    c-0.4,0-0.62,0.09-0.89,0.15c-0.27,0.09-0.62,0.21-1.34,0.19c-0.38-0.01-0.81-0.07-0.74,0.28c0.06,0.31,1.61,0,1.61,1.18v7.23
    c0,2.64,1.63,4.16,3.62,4.16c1.31,0,2.53-0.27,3.29-1.73h0.05v1.26c0,0.12,0.03,0.46,0.22,0.46c0.37,0,0.57-0.29,0.84-0.39
    c0.3-0.06,0.37-0.32,1.3-0.4c0.39-0.03,0.83-0.23,0.83-0.48c-0.14-0.53-1.44,0.04-1.44-0.76V9.55c0-0.59-0.35-0.74-0.44-0.74
    c-0.4,0-0.62,0.09-0.89,0.15c-0.27,0.09-0.59,0.23-1.31,0.23c-0.12,0-0.81-0.11-0.77,0.24c0.04,0.35,1.59,0.15,1.61,1.18V18.14
    L304.12,18.14z"/>
  <path fill-rule="evenodd" clip-rule="evenodd" fill="#FFFFFF" d="M290.93,21.35c-2.75,0-3.87-3.88-3.87-6.88
    c0-2.61,0.91-5.05,3.21-5.05c2.8,0,3.8,3.3,3.8,6.46C294.08,19.68,292.9,21.35,290.93,21.35L290.93,21.35z M290.68,22.07
    c2.89,0,5.28-2.97,5.28-6.75c0-5.71-3.51-6.76-5.3-6.76c-2.96,0-5.36,3.22-5.36,7C285.3,19.71,287.63,22.07,290.68,22.07
    L290.68,22.07z"/>
  <path fill="#FFFFFF" d="M22.18,18.82c0.03,3.59-4.55,4.41-6.68,5.32c-1.35,0.55-2.76,1.02-4.14,1.52
    c-1.54-0.52-3.39-1.21-4.86-1.71c-6.35-2.34-5.99-3.48-6.01-5.08C0.53,14.35,0.53,1.38,0.53,0.53C7.67,2.27,15.45,2.29,22.18,0.5
    V18.82L22.18,18.82z"/>
  <path fill="#007360" d="M21.37,18.46V1.51C15.14,3.17,7.94,3.15,1.33,1.54c0,0.79,0,12.79-0.02,16.98c0.02,1.48-0.31,2.53,5.57,4.7
    c1.35,0.46,3.06,1.1,4.49,1.58c1.28-0.46,2.58-0.89,3.83-1.4C17.16,22.55,21.4,21.78,21.37,18.46L21.37,18.46z"/>
  <polygon fill="#9E0918" points="2.16,6.58 20.53,6.58 20.53,17.49 2.16,17.49 2.16,6.58 "/>
  <path fill="#E7D1B9" d="M20.5,6.9c-5.85,1.35-12.54,1.56-18.33,0V2.63c5.59,1.25,12.79,1.43,18.33,0V6.9L20.5,6.9z"/>
  <path fill="#E7D1B9" d="M20.5,13.18l-3.06,0.59c-0.03-0.23,0-3.06,0-3.06c1.02-0.15,1.76-0.36,3.06-0.64V13.18L20.5,13.18z"/>
  <path fill="#E7D1B9" d="M5.39,13.82c-1.07-0.1-1.79-0.28-3.22-0.61c0-0.71,0-2.63,0-3.14c1.28,0.36,2.27,0.38,3.22,0.64V13.82
    L5.39,13.82z"/>
  <polygon fill="#E7D1B9" points="15.22,14.38 11.92,14.38 11.36,14.94 10.85,14.38 7.56,14.38 7.56,9.02 10.85,9.02 11.36,9.53 
    11.9,9.02 15.22,9.02 15.22,14.38 "/>
  <polygon fill="#E7D1B9" points="16.67,15.86 12.18,15.86 11.36,16.6 10.54,15.86 6.13,15.86 6.13,10.06 6.97,9.43 7,15 
    10.77,15.07 11.41,15.68 12.1,15.07 15.88,15.07 15.91,9.5 16.67,10.11 16.67,15.86 "/>
  <path fill="#E7D1B9" d="M20.5,18.8c-0.28,2.09-2.68,2.78-3.45,3.17c-1.89,0.74-3.78,1.33-5.67,2.09c-7.3-2.76-9.12-3.14-9.22-5.26
    c0,0-0.03-2.2,0-2.35c5.75,1.28,12.21,1.38,18.33,0V18.8L20.5,18.8z"/>
  <polygon fill="#007360" points="11.95,19.79 11.95,18.52 11.48,18.05 11.01,18.52 11.01,19.79 11.35,20.46 11.35,21.55 
    11.62,21.55 11.62,20.46 11.95,19.79 "/>
  <polygon fill="#007360" points="13.8,20.46 13.8,19.86 12.52,19.86 11.99,20.53 11.99,21.55 12.39,21.55 12.39,20.9 12.86,20.46 
    13.43,20.83 13.8,20.46 "/>
  <polygon fill="#007360" points="9.18,20.46 9.18,19.86 10.45,19.86 10.99,20.53 10.99,21.55 10.59,21.55 10.59,20.9 10.12,20.46 
    9.55,20.83 9.18,20.46 "/>
  <polygon fill="#007360" points="10.98,22.41 10.98,21.93 10.18,21.93 10.18,22.3 10.71,22.74 10.98,22.41 "/>
  <polygon fill="#007360" points="11.98,22.41 11.98,21.93 12.78,21.93 12.78,22.3 12.25,22.74 11.98,22.41 "/>
  <polygon fill="#007360" points="11.95,22.97 11.62,22.47 11.62,21.93 11.35,21.93 11.35,22.47 10.98,22.97 11.45,23.58 
    11.95,22.97 "/>
  <polygon fill="#007360" points="5.67,18.66 5.67,17.74 5.33,17.39 4.98,17.74 4.98,18.66 5.23,19.15 5.23,19.94 5.42,19.94 
    5.42,19.15 5.67,18.66 "/>
  <polygon fill="#007360" points="7.01,19.15 7.01,18.71 6.08,18.71 5.69,19.2 5.69,19.94 5.98,19.94 5.98,19.47 6.33,19.15 
    6.74,19.42 7.01,19.15 "/>
  <polygon fill="#007360" points="3.65,19.15 3.65,18.71 4.57,18.71 4.96,19.2 4.96,19.94 4.67,19.94 4.67,19.47 4.33,19.15 
    3.92,19.42 3.65,19.15 "/>
  <polygon fill="#007360" points="4.96,20.56 4.96,20.22 4.37,20.22 4.37,20.49 4.76,20.81 4.96,20.56 "/>
  <polygon fill="#007360" points="5.68,20.56 5.68,20.22 6.27,20.22 6.27,20.49 5.88,20.81 5.68,20.56 "/>
  <polygon fill="#007360" points="5.67,20.98 5.42,20.61 5.42,20.22 5.23,20.22 5.23,20.61 4.96,20.98 5.3,21.42 5.67,20.98 "/>
  <polygon fill="#007360" points="18,18.66 18,17.74 17.66,17.39 17.32,17.74 17.32,18.66 17.57,19.15 17.57,19.94 17.76,19.94 
    17.76,19.15 18,18.66 "/>
  <polygon fill="#007360" points="19.34,19.15 19.34,18.71 18.42,18.71 18.03,19.2 18.03,19.94 18.32,19.94 18.32,19.47 18.66,19.15 
    19.08,19.42 19.34,19.15 "/>
  <polygon fill="#007360" points="15.99,19.15 15.99,18.71 16.91,18.71 17.3,19.2 17.3,19.94 17.01,19.94 17.01,19.47 16.67,19.15 
    16.25,19.42 15.99,19.15 "/>
  <polygon fill="#007360" points="17.3,20.56 17.3,20.22 16.71,20.22 16.71,20.49 17.1,20.81 17.3,20.56 "/>
  <polygon fill="#007360" points="18.02,20.56 18.02,20.22 18.61,20.22 18.61,20.49 18.22,20.81 18.02,20.56 "/>
  <polygon fill="#007360" points="18,20.98 17.76,20.61 17.76,20.22 17.57,20.22 17.57,20.61 17.3,20.98 17.64,21.42 18,20.98 "/>
  <polygon fill="#007360" points="19.3,4.92 18.05,4.88 17.64,3.64 17.19,4.88 15.97,4.92 17,5.59 16.65,6.8 17.64,6.07 18.69,6.8 
    18.34,5.59 19.3,4.92 "/>
  <path fill="#007360" d="M6.96,4.92L5.81,4.88c0,0-0.48-1.25-0.48-1.21L4.94,4.88L3.7,4.92l0.99,0.67L4.34,6.8l0.99-0.73L6.42,6.8
    L6,5.59L6.96,4.92L6.96,4.92z"/>
  <polygon fill="#007360" points="13.08,5.37 11.84,5.34 11.42,4.22 11.07,5.34 9.85,5.37 10.85,6.14 10.43,7.36 11.45,6.62 
    12.51,7.36 12.09,6.17 13.08,5.37 "/>
</g>
</svg>
