<svg xmlns="http://www.w3.org/2000/svg" width="185" height="206.01"><g fill="#E9E9E9"><path d="M44.8 152.13l.61-6.69-2.23-2.69-2.68 2.24-.62 6.69 1.14 3.7-.53 5.74 2.04.18.53-5.73 1.74-3.44zM54.13 156.55l.29-3.18-6.67-.62-3.13 3.28-.49 5.39 2.1.2.32-3.46 2.67-2.06 2.8 2.21 2.11-1.76zM29.93 154.33l.3-3.18 6.67.61 2.48 3.79-.5 5.39-2.11-.19.32-3.46-2.24-2.51-3.17 1.66-1.75-2.11zM38.44 165.42l.23-2.47-4.22-.4-.18 1.95 2.6 2.54 1.57-1.62zM43.66 165.9l.23-2.47 4.21.37-.18 1.96-3.02 2.02-1.24-1.88zM43.26 168.87l-1.22-2.77.26-2.82-1.99-.18-.26 2.82-1.88 2.49 2.17 3.39 2.92-2.93zM88.95 164.4l.86-9.28-3.1-3.73-3.72 3.11-.85 9.28 1.57 5.13-.73 7.95 2.83.26.73-7.95 2.41-4.77zM101.88 170.53l.41-4.42-9.24-.85-4.35 4.54-.68 7.47 2.93.27.43-4.78 3.71-2.86 3.89 3.07 2.9-2.44zM68.34 167.45l.41-4.42 9.24.85 3.44 5.25-.68 7.47-2.92-.27.43-4.77-3.11-3.49-4.39 2.3-2.42-2.92zM80.13 182.82l.32-3.43-5.85-.54-.24 2.7 3.6 3.52 2.17-2.25zM87.38 183.48l.31-3.42 5.85.52-.25 2.71-4.2 2.81-1.71-2.62zM86.82 187.61l-1.7-3.85.36-3.91-2.75-.25-.36 3.91-2.62 3.45 3.02 4.71 4.05-4.06zM132.21 159.78l.62-6.7-2.23-2.69-2.68 2.24-.61 6.7 1.14 3.69-.53 5.74 2.04.19.53-5.74 1.72-3.43zM141.55 164.2l.3-3.19-6.68-.61-3.13 3.27-.5 5.39 2.12.2.32-3.46 2.66-2.05 2.81 2.2 2.1-1.75zM117.36 161.97l.3-3.18 6.65.61 2.49 3.79-.5 5.39-2.1-.19.31-3.46-2.24-2.5-3.16 1.65-1.75-2.11zM125.86 173.06l.22-2.47-4.2-.4-.18 1.95 2.58 2.55 1.58-1.63zM131.08 173.54l.23-2.47 4.22.38-.18 1.95-3.04 2.03-1.23-1.89zM130.68 176.52l-1.22-2.78.26-2.82-1.98-.18-.26 2.82-1.9 2.49 2.18 3.4 2.92-2.93z"/></g><path fill="#E9E9E9" d="M91.3 63.69c-26.59-2.44-51.32-7.84-73.52-16.04-.27-.1-.44-.37-.41-.66l3.3-35.88c.02-.19.12-.37.28-.47.16-.1.36-.13.55-.07 24.22 7.8 51.56 13.26 79.06 15.78 27.08 2.49 52.97 1.92 74.88-1.63.2-.03.39.03.54.16.15.14.22.33.21.52l-3.3 35.88c-.03.29-.25.53-.55.57-26.59 3.63-54.62 4.26-81.04 1.84zm-72.62-17.07c21.98 8.07 46.44 13.38 72.74 15.8 26.16 2.4 53.89 1.79 80.25-1.76l3.17-34.56c-21.84 3.46-47.55 3.98-74.39 1.51-27.31-2.51-54.46-7.9-78.58-15.6l-3.19 34.61zM141.07 117.58c-.2-.02-.4-.1-.55-.24-.2-.18-.31-.43-.32-.7-.03-1.98 2.27-24.9 2.37-25.88.05-.47.42-.83.89-.86 6.02-.35 10.92-1.01 17.14-1.84 2.72-.36 5.68-.76 9.08-1.18.28-.03.57.06.78.26.21.2.31.48.29.77l-2.41 26.24c-.04.45-.41.81-.86.86l-26.24 2.55-.17.02zm3.33-25.82c-.63 6.31-1.95 19.8-2.23 23.81l24.35-2.37 2.23-24.28c-2.91.36-5.49.71-7.89 1.03-5.97.8-10.74 1.45-16.46 1.81zM39.23 108.2l-25.33-7.29c-.44-.13-.73-.55-.69-1l2.41-26.24c.03-.29.18-.55.42-.71.24-.16.54-.2.81-.11 3.27 1.03 6.11 1.96 8.72 2.81 5.96 1.95 10.66 3.49 16.51 4.93.46.11.76.54.72 1-.08.98-1.99 23.94-2.38 25.88-.05.26-.21.49-.44.63-.17.11-.38.15-.58.14l-.17-.04zm-14.25-30.73c-2.29-.75-4.77-1.56-7.57-2.45l-2.23 24.28 23.52 6.77c.46-4 1.62-17.5 2.14-23.82-5.56-1.41-10.13-2.91-15.86-4.78zM89.03 122.75h-.02c-.26-.03-.5-.17-.65-.37l-3.61-4.78-27.28-2.51c-.52-.05-.91-.51-.86-1.04l4.14-45.11c.05-.53.51-.91 1.04-.86l27.71 2.55c.25.02.48.14.65.34l3.31 3.99 4.19-3.32c.19-.15.44-.22.68-.2l27.91 2.57c.53.05.91.51.87 1.04l-4.15 45.11c-.05.52-.51.91-1.04.86l-27.31-2.51-4.87 4.04c-.21.15-.46.22-.71.2zm-30.45-9.47l26.75 2.46c.27.02.51.16.67.38l3.26 4.32 4.41-3.65c.19-.16.44-.24.69-.22l26.76 2.46 3.97-43.21-26.58-2.44-4.63 3.66c-.4.32-1 .26-1.32-.14l-3.65-4.4-26.36-2.42-3.97 43.2zM87.74 136.73c-.23-.02-.45-.12-.62-.3l-6.04-6.58-36.8-3.39c-.53-.05-.91-.51-.86-1.04l4.48-48.78c.03-.3.19-.56.45-.72l6.67-4.14c.31-.19.7-.19 1 0 .31.19.48.54.45.89l-4.01 45.9 31.71 2.91c.24.02.47.14.63.32l4.32 5 5.55-4.11c.19-.14.42-.21.65-.18l30.86 2.83 4.43-45.85c.03-.37.28-.68.62-.8.34-.13.72-.05.99.21l5.98 5.73c.21.2.32.49.29.78l-4.44 48.36c-.05.52-.51.91-1.04.86l-37.45-3.44-7.16 5.37c-.19.13-.43.19-.66.17zm-42.33-12.09l36.22 3.34c.24.02.45.13.62.3l5.7 6.22 6.76-5.07c.18-.14.42-.21.66-.19l36.87 3.39 4.31-46.95-4.22-4.05-4.33 44.84c-.05.52-.52.91-1.04.86l-31.44-2.89-5.96 4.43c-.4.3-.96.24-1.29-.14l-4.65-5.37-32.27-2.97c-.52-.05-.91-.51-.86-1.03l3.93-44.95-4.65 2.88-4.36 47.35zM149.26 57.73c-.13-.01-.25-.06-.35-.15l-6.65-5.6-7.07 4.32c-.24.14-.54.12-.74-.06-.21-.18-.29-.46-.18-.72l3.09-7.9-6.42-5.13c-.22-.17-.3-.47-.2-.73.1-.26.36-.42.64-.41l8.18.53 3.77-8.13c.12-.24.37-.39.64-.36.27.03.49.22.55.49l2.04 8.65 8.34.99c.28.03.5.24.55.51.05.27-.07.54-.31.68l-6.81 3.9 1.62 8.35c.05.27-.07.53-.3.67-.13.09-.26.12-.39.1zM57.21 49.27c-.12-.01-.25-.06-.34-.14l-6.86-5.63-7.1 4.33c-.23.14-.53.12-.74-.05-.21-.18-.28-.47-.18-.72l3.1-7.91-6.21-5.1c-.21-.17-.29-.47-.19-.72.1-.26.36-.42.63-.4l8.38.55 3.32-7.92c.1-.26.36-.43.65-.4.51.05.52.05 3.03 8.96l7.7.92c.27.03.49.23.55.51.06.27-.07.54-.31.68l-6.8 3.89 2.04 8.38c.06.27-.05.54-.28.69-.11.07-.25.1-.39.08zM87.83 56.36c-.13-.01-.26-.07-.37-.16-.21-.19-.27-.48-.15-.74l3.54-7.9-6.17-5.76c-.2-.18-.26-.47-.15-.72.11-.25.36-.4.63-.38l8.17.53 3.03-7.24c.11-.25.36-.41.63-.39.33-.02.5.21.57.47l2.11 7.75 8.35.99c.27.03.48.22.55.48.06.26-.04.53-.26.68l-7.14 4.77 2.07 8.18c.07.27-.04.55-.28.69-.24.15-.54.12-.75-.05l-6.66-5.58-7.33 4.29c-.13.08-.26.11-.39.09zM81.38 206.01c-.14-.01-.27-.05-.4-.11-5.82-2.59-12.2-5.56-18.51-8.5-6.31-2.94-12.54-5.84-18.06-8.29-26.03-12.41-38.83-21.45-42.83-30.26l-.04-.1c-1.98-4.44-1.63-8.44-1.26-12.68.06-.67.12-1.35.17-2.05 3.35-34.23 12.33-131.85 13.34-142.87.04-.39.25-.74.58-.95.33-.21.73-.26 1.1-.14 27.12 9.3 55.48 15.35 84.3 18 29.08 2.67 57.26 1.74 83.74-2.77.4-.07.79.05 1.08.32.29.27.44.66.41 1.05l-13.11 142.63c-.48 5.47-2.25 10.38-5.26 14.6l-.08.13c-8.87 12.2-26.51 16.62-40.68 20.16-3.92.98-7.62 1.91-10.65 2.89-8.12 2.48-16.53 4.6-24.67 6.65-2.92.74-5.83 1.47-8.73 2.22-.15.07-.3.08-.44.07zm-77.44-48.13c3.73 8.08 16.54 17 41.53 28.92 5.5 2.44 11.75 5.35 18.07 8.3 6.14 2.86 12.36 5.75 18.06 8.3 2.76-.72 5.54-1.41 8.32-2.11 8.11-2.05 16.49-4.16 24.53-6.61 3.09-1.01 6.83-1.94 10.79-2.93 13.73-3.44 30.81-7.71 39.16-19.09l.08-.12c2.83-3.92 4.42-8.32 4.87-13.45l12.96-141c-26.23 4.31-54.06 5.16-82.77 2.52-28.48-2.62-56.51-8.54-83.36-17.61-1.54 16.68-9.97 108.32-13.19 141.24-.05.67-.11 1.36-.17 2.05-.35 4.09-.66 7.62 1.08 11.5l.04.09zM82.24 199.17l-.22-.06c-7.27-3.54-13.87-6.71-19.86-9.59-29.65-14.24-44.64-21.44-50.63-29.85l-.14-.14c-2.46-3.57-3.45-7.4-3.22-12.4.15-1.92 1.51-18.62 1.84-19.9.04-.17.16-.31.31-.4.15-.08.33-.1.5-.05 24.45 7.84 50.18 13.04 76.47 15.46 26.22 2.41 52.29 1.97 77.5-1.31.19-.02.39.04.52.17.14.14.21.32.19.52l-1.82 19.77c-1.02 4.45-3.11 8.3-6.23 11.53-6.44 6.72-15.79 9.73-21.98 11.73-1.44.46-2.69.87-3.64 1.24-7.68 2.23-15.4 4.2-22.86 6.09-8.68 2.21-17.64 4.48-26.5 7.17l-.23.02zm-69.92-40.55l.13.13c5.7 8.22 20.59 15.37 50.26 29.62 5.93 2.85 12.46 5.99 19.64 9.48 8.8-2.66 17.71-4.92 26.31-7.11 7.46-1.9 15.17-3.85 22.77-6.06.93-.37 2.2-.77 3.66-1.24 6.07-1.96 15.24-4.91 21.46-11.4 2.95-3.06 4.93-6.71 5.89-10.84l1.73-18.9c-25.05 3.2-50.95 3.61-76.99 1.21-26.14-2.4-51.71-7.54-76.04-15.29-.34 2.71-1.16 12.41-1.69 19-.22 4.59.67 8.12 2.87 11.4z"/></svg>
